<svg width="110" height="86" viewBox="0 0 110 86" fill="none" xmlns="http://www.w3.org/2000/svg">
<path d="M53.5416 22.3107L18.3348 51.4637V82.9282C18.3348 83.7429 18.6567 84.5242 19.2297 85.1003C19.8026 85.6764 20.5798 86 21.3901 86L42.7888 85.9443C43.5965 85.9403 44.3697 85.6148 44.9394 85.0392C45.5091 84.4636 45.8289 83.6846 45.8288 82.8726V64.4976C45.8288 63.6829 46.1507 62.9016 46.7237 62.3255C47.2967 61.7495 48.0738 61.4258 48.8842 61.4258H61.1054C61.9158 61.4258 62.6929 61.7495 63.2659 62.3255C63.8389 62.9016 64.1608 63.6829 64.1608 64.4976V82.8591C64.1595 83.2633 64.2376 83.6638 64.3906 84.0376C64.5436 84.4114 64.7684 84.7511 65.0523 85.0374C65.3361 85.3237 65.6733 85.5508 66.0447 85.7057C66.416 85.8607 66.8141 85.9405 67.2161 85.9405L88.6071 86C89.4175 86 90.1946 85.6764 90.7676 85.1003C91.3406 84.5242 91.6625 83.7429 91.6625 82.9282V51.4426L56.4633 22.3107C56.0495 21.9753 55.534 21.7924 55.0024 21.7924C54.4709 21.7924 53.9554 21.9753 53.5416 22.3107V22.3107ZM109.154 42.1255L93.1901 28.8958V2.30383C93.1901 1.69282 92.9487 1.10683 92.519 0.674776C92.0892 0.242725 91.5064 0 90.8986 0H80.205C79.5973 0 79.0144 0.242725 78.5847 0.674776C78.155 1.10683 77.9135 1.69282 77.9135 2.30383V16.2439L60.8171 2.10224C59.1764 0.744865 57.1177 0.00271342 54.9929 0.00271342C52.8681 0.00271342 50.8094 0.744865 49.1687 2.10224L0.831618 42.1255C0.59958 42.3183 0.407606 42.5552 0.266664 42.8227C0.125722 43.0901 0.0385749 43.3828 0.0102012 43.6841C-0.0181724 43.9855 0.012784 44.2894 0.101301 44.5787C0.189819 44.868 0.334163 45.1369 0.526086 45.3701L5.3955 51.3216C5.5869 51.5556 5.82232 51.7493 6.08829 51.8917C6.35426 52.0341 6.64555 52.1224 6.94549 52.1515C7.24543 52.1805 7.54812 52.1498 7.83624 52.0611C8.12437 51.9724 8.39226 51.8275 8.62459 51.6346L53.5416 14.4392C53.9554 14.1039 54.4709 13.921 55.0024 13.921C55.534 13.921 56.0495 14.1039 56.4633 14.4392L101.382 51.6346C101.614 51.8275 101.882 51.9726 102.169 52.0616C102.457 52.1506 102.759 52.1817 103.059 52.1532C103.359 52.1247 103.65 52.0371 103.916 51.8954C104.182 51.7537 104.418 51.5607 104.609 51.3274L109.479 45.3758C109.671 45.1413 109.814 44.871 109.902 44.5805C109.989 44.2899 110.019 43.9849 109.989 43.6828C109.958 43.3808 109.869 43.0877 109.726 42.8204C109.583 42.5532 109.388 42.317 109.154 42.1255V42.1255Z" fill="white"/>
</svg>
