<svg width="110" height="86" viewBox="0 0 110 86" fill="none" xmlns="http://www.w3.org/2000/svg">
<path fill-rule="evenodd" clip-rule="evenodd" d="M55 13.0055L98.9963 50.4162V76.6473C98.9963 79.1278 97.8375 81.5067 95.7748 83.2607C93.712 85.0146 90.9144 86 87.9972 86H22.0028C19.0857 86 16.288 85.0146 14.2253 83.2607C12.1625 81.5067 11.0037 79.1278 11.0037 76.6473V50.4162L55 13.0055V13.0055ZM91.6636 8.06105V29.884L76.9982 17.4137V8.06105C76.9982 7.23422 77.3844 6.44126 78.072 5.8566C78.7596 5.27195 79.6921 4.94349 80.6645 4.94349H87.9972C88.9696 4.94349 89.9022 5.27195 90.5897 5.8566C91.2773 6.44126 91.6636 7.23422 91.6636 8.06105Z" fill="white"/>
<path fill-rule="evenodd" clip-rule="evenodd" d="M49.8158 1.82556C51.1909 0.656654 53.0556 0 55 0C56.9444 0 58.8091 0.656654 60.1842 1.82556L108.925 43.2641C109.613 43.8495 110 44.6435 110 45.4714C110 46.2992 109.613 47.0932 108.925 47.6786C108.236 48.264 107.303 48.5929 106.329 48.5929C105.355 48.5929 104.422 48.264 103.733 47.6786L55 6.23378L6.26677 47.6786C5.57833 48.264 4.6446 48.5929 3.67099 48.5929C2.69738 48.5929 1.76365 48.264 1.07521 47.6786C0.386764 47.0932 0 46.2992 0 45.4714C0 44.6435 0.386764 43.8495 1.07521 43.2641L49.8158 1.82556Z" fill="white"/>
</svg>
