<svg width="110" height="86" viewBox="0 0 110 86" fill="none" xmlns="http://www.w3.org/2000/svg">
<path d="M23.5714 38.6122H41.5306V24.5714H23.5714V38.6122ZM33.4457 25.9724H39.73V30.887H33.4457V25.9724ZM33.4457 32.2938H39.73V37.2112H33.4457V32.2938ZM25.3664 25.9724H31.6489V30.887H25.3664V25.9724ZM25.3664 32.2938H31.6489V37.2112H25.3664V32.2938Z" fill="white"/>
<path d="M57.2449 76.3469H75.2041V62.3061H57.2449V76.3469ZM67.1202 63.7111H73.4052V68.6226H67.1202V63.7111ZM67.1202 70.0305H73.4052V74.942H67.1202V70.0305ZM59.0382 63.7111H65.3213V68.6226H59.0382V63.7111ZM59.0382 70.0305H65.3213V74.942H59.0382V70.0305Z" fill="white"/>
<path d="M110 81.0536C110 80.4444 109.69 79.8954 109.191 79.4884C109.692 78.9824 110 78.3517 110 77.6623C110 76.8627 109.594 76.0959 108.871 75.5304C108.148 74.9648 107.167 74.6469 106.145 74.6466C105.706 74.6466 105.29 74.7154 104.9 74.8214C104.718 74.5112 104.448 74.2375 104.111 74.0214C103.773 73.8053 103.377 73.6524 102.952 73.5745C102.527 73.4966 102.085 73.4958 101.66 73.572C101.234 73.6483 100.837 73.7996 100.498 74.0145C100.593 73.684 100.592 73.341 100.495 73.0109C100.398 72.6807 100.208 72.3718 99.9376 72.107C99.6674 71.8421 99.3247 71.6281 98.9345 71.4807C98.5444 71.3333 98.117 71.2562 97.6837 71.2553C96.261 71.2553 95.0822 72.0623 94.8402 73.1201C94.497 72.8909 94.0613 72.7639 93.61 72.7617C92.5467 72.7617 91.6832 73.4368 91.6832 74.2725V55.6993H99.6838L87.3363 44.9493H69.047V17.6515H80.234L66.1173 11.3391V3.26227H68.2037V0H53.6122V3.26227H55.6985V6.6779L40.766 0L1.29617 17.6515H12.4832V44.9493L0 55.6993H8.00067V71.8903C7.46432 71.4831 6.74622 71.2554 5.99867 71.2553C4.576 71.2553 3.39717 72.0623 3.15517 73.1201C2.81205 72.8909 2.37629 72.7639 1.925 72.7617C0.8635 72.7617 0 73.4354 0 74.271V86H110V83.3125H107.111C108.706 83.3125 110 82.2991 110 81.0536ZM3.37333 75.7775C3.90683 75.7775 4.33583 76.1129 4.33583 76.53C4.33583 76.9471 3.90683 76.4038 3.37333 76.4038C2.83983 76.4038 2.41083 76.9471 2.41083 76.53C2.41083 76.1129 2.83983 75.7775 3.37333 75.7775V75.7775ZM1.72517 78.7961C1.1935 78.7961 0.762666 79.2132 0.762666 78.7961C0.773498 78.602 0.879734 78.4187 1.05922 78.2843C1.23871 78.15 1.4776 78.075 1.72608 78.075C1.97456 78.075 2.21345 78.15 2.39294 78.2843C2.57243 78.4187 2.67867 78.602 2.6895 78.7961C2.69133 79.2132 2.25867 78.7961 1.72517 78.7961V78.7961ZM5.03433 81.0536C3.96917 81.0536 3.10567 82.216 3.10567 81.3818C3.10567 80.9819 3.30887 80.5984 3.67056 80.3156C4.03226 80.0328 4.52282 79.8739 5.03433 79.8739C5.54585 79.8739 6.03641 80.0328 6.39811 80.3156C6.7598 80.5984 6.963 80.9819 6.963 81.3818C6.963 82.2146 6.0995 81.0536 5.03433 81.0536ZM6.259 74.7483C5.5385 74.7483 4.95367 75.5883 4.95367 75.0235C4.94709 74.8862 4.976 74.7492 5.03868 74.6208C5.10136 74.4925 5.19652 74.3753 5.31846 74.2763C5.44041 74.1773 5.58664 74.0986 5.7484 74.0448C5.91016 73.991 6.08414 73.9633 6.25992 73.9633C6.4357 73.9633 6.60967 73.991 6.77143 74.0448C6.9332 74.0986 7.07942 74.1773 7.20137 74.2763C7.32332 74.3753 7.41847 74.4925 7.48115 74.6208C7.54383 74.7492 7.57275 74.8862 7.56617 75.0235C7.56617 75.5883 6.98133 74.7483 6.259 74.7483ZM16.1498 17.6515H65.384V44.9493H16.1498V17.6515V17.6515ZM11.0788 80.0244C10.3565 80.0244 9.7735 80.8644 9.7735 80.2996C9.7735 80.029 9.91103 79.7694 10.1558 79.578C10.4006 79.3866 10.7326 79.2791 11.0788 79.2791C11.425 79.2791 11.757 79.3866 12.0018 79.578C12.2466 79.7694 12.3842 80.029 12.3842 80.2996C12.3842 80.8644 11.8012 80.0244 11.0788 80.0244ZM12.2467 77.4817C12.2467 77.2827 12.2968 77.0857 12.3942 76.9019C12.4916 76.7181 12.6343 76.5511 12.8142 76.4104C12.9942 76.2697 13.2078 76.1581 13.4429 76.082C13.678 76.0059 13.93 75.9667 14.1845 75.9667C14.439 75.9667 14.691 76.0059 14.9261 76.082C15.1612 76.1581 15.3748 76.2697 15.5548 76.4104C15.7347 76.5511 15.8774 76.7181 15.9748 76.9019C16.0722 77.0857 16.1223 77.2827 16.1223 77.4817C16.1223 78.3188 15.2533 77.0015 14.1827 77.0015C13.1138 77.0015 12.2467 78.3188 12.2467 77.4817ZM15.2203 81.0579C14.6868 81.0579 14.2578 81.4735 14.2578 81.0579C14.2578 80.6408 14.6868 80.3054 15.2203 80.3054C15.7538 80.3054 16.1828 80.6408 16.1828 81.0579C16.1828 81.4735 15.7538 81.0579 15.2203 81.0579ZM42.845 74.5548C42.5375 74.5548 42.2425 74.4593 42.0251 74.2893C41.8076 74.1193 41.6854 73.8887 41.6854 73.6482C41.6854 73.4078 41.8076 73.1772 42.0251 73.0072C42.2425 72.8372 42.5375 72.7417 42.845 72.7417C43.1525 72.7417 43.4475 72.8372 43.665 73.0072C43.8824 73.1772 44.0046 73.4078 44.0046 73.6482C44.0046 73.8887 43.8824 74.1193 43.665 74.2893C43.4475 74.4593 43.1525 74.5548 42.845 74.5548V74.5548ZM45.5455 83.1333V66.3977H47.0928V63.984H28.5615V66.3992H30.1052V83.1333H16.5513C16.9835 82.9913 17.3649 82.769 17.6623 82.4857C17.9598 82.2024 18.1643 81.8666 18.2583 81.5075C18.3522 81.1484 18.3326 80.7768 18.2013 80.425C18.07 80.0731 17.8309 79.7516 17.5047 79.4884C18.0052 78.981 18.3132 78.3517 18.3132 77.6623C18.3132 76.8627 17.907 76.0959 17.184 75.5304C16.461 74.9648 15.4804 74.6469 14.4577 74.6466C14.0195 74.6466 13.6033 74.7154 13.2128 74.8214C12.8963 74.308 12.3438 73.9067 11.6655 73.6977V55.6993H88.0165V83.1333H45.5455ZM95.0602 75.7775C95.5937 75.7775 96.0227 76.1129 96.0227 76.53C96.0227 76.9471 95.5937 76.4038 95.0602 76.4038C94.5267 76.4038 94.0977 76.9471 94.0977 76.53C94.0977 76.1129 94.5267 75.7775 95.0602 75.7775ZM93.412 78.7961C92.8803 78.7961 92.4495 79.2132 92.4495 78.7961C92.4603 78.602 92.5666 78.4187 92.7461 78.2843C92.9256 78.15 93.1644 78.075 93.4129 78.075C93.6614 78.075 93.9003 78.15 94.0798 78.2843C94.2593 78.4187 94.3655 78.602 94.3763 78.7961C94.3782 79.2132 93.9455 78.7961 93.412 78.7961ZM96.7193 81.0536C95.656 81.0536 94.7925 82.216 94.7925 81.3818C94.7925 80.9819 94.9957 80.5984 95.3574 80.3156C95.7191 80.0328 96.2097 79.8739 96.7212 79.8739C97.2327 79.8739 97.7232 80.0328 98.0849 80.3156C98.4466 80.5984 98.6498 80.9819 98.6498 81.3818C98.6498 82.2146 97.7863 81.0536 96.7193 81.0536ZM97.9458 74.7483C97.2253 74.7483 96.6405 75.5883 96.6405 75.0235C96.6339 74.8862 96.6628 74.7492 96.7255 74.6208C96.7882 74.4925 96.8834 74.3753 97.0053 74.2763C97.1272 74.1773 97.2735 74.0986 97.4352 74.0448C97.597 73.991 97.771 73.9633 97.9468 73.9633C98.1225 73.9633 98.2965 73.991 98.4583 74.0448C98.62 74.0986 98.7663 74.1773 98.8882 74.2763C99.0101 74.3753 99.1053 74.4925 99.168 74.6208C99.2307 74.7492 99.2596 74.8862 99.253 75.0235C99.253 75.5883 98.6663 74.7483 97.9458 74.7483V74.7483ZM102.764 80.0244C102.043 80.0244 101.46 80.8644 101.46 80.2996C101.46 80.029 101.598 79.7694 101.843 79.578C102.087 79.3866 102.419 79.2791 102.766 79.2791C103.112 79.2791 103.444 79.3866 103.689 79.578C103.933 79.7694 104.071 80.029 104.071 80.2996C104.071 80.8644 103.486 80.0244 102.764 80.0244ZM103.932 77.4817C103.932 77.0797 104.136 76.6942 104.5 76.4099C104.863 76.1256 105.356 75.9659 105.87 75.9659C106.385 75.9659 106.878 76.1256 107.241 76.4099C107.605 76.6942 107.809 77.0797 107.809 77.4817C107.809 78.3188 106.94 77.0015 105.87 77.0015C104.801 77.0015 103.932 78.3188 103.932 77.4817ZM106.907 81.0579C106.374 81.0579 105.945 81.4735 105.945 81.0579C105.945 80.6408 106.374 80.3054 106.907 80.3054C107.441 80.3054 107.87 80.6408 107.87 81.0579C107.87 81.4735 107.441 81.0579 106.907 81.0579Z" fill="white"/>
</svg>
