<svg width="110" height="86" viewBox="0 0 110 86" fill="none" xmlns="http://www.w3.org/2000/svg">
<path d="M28.5097 1.15558L0.564103 37.5175C0.212643 38.0017 0.016312 38.5769 0 39.1703C0 39.9009 0.29716 40.6015 0.826109 41.1181C1.35506 41.6348 2.07247 41.925 2.82051 41.925H8.46154V83.1902C8.46154 83.9354 8.76464 84.6501 9.30417 85.177C9.8437 85.704 10.5755 86 11.3385 86H39.4308C39.8086 86 40.1827 85.9273 40.5317 85.7861C40.8808 85.6449 41.1979 85.4379 41.4651 85.177C41.7322 84.9161 41.9441 84.6064 42.0887 84.2655C42.2333 83.9246 42.3077 83.5592 42.3077 83.1902V36.052C42.311 35.3732 42.5677 34.7189 43.0297 34.2118L53.5897 25.3968L33.2821 1.33188C33.0339 0.939954 32.6908 0.613659 32.2831 0.381747C31.8754 0.149835 31.4155 0.0194263 30.944 0.00200816C30.4725 -0.0154099 30.0038 0.0806979 29.5793 0.281865C29.1548 0.483033 28.7875 0.783083 28.5097 1.15558V1.15558ZM31.0256 52.9437H19.7436V41.925H31.0256V52.9437ZM107.179 8.86871H101.538C100.79 8.86871 100.073 9.15893 99.5441 9.67554C99.0151 10.1921 98.7179 10.8928 98.7179 11.6234V33.11L83.5774 21.2758C83.0714 20.8806 82.4428 20.6654 81.7949 20.6654C81.147 20.6654 80.5183 20.8806 80.0123 21.2758L54.7179 41.1096C54.3799 41.3735 54.1078 41.7091 53.9221 42.0909C53.7364 42.4727 53.6421 42.8907 53.6462 43.3133V83.2123C53.646 83.9422 53.939 84.643 54.4621 85.1643C54.9853 85.6855 55.6969 85.9856 56.4441 86H73.2995C74.0565 86 74.7825 85.7063 75.3178 85.1835C75.8531 84.6607 76.1538 83.9516 76.1538 83.2123V63.9625H87.4359V83.2123C87.4359 83.9516 87.7366 84.6607 88.2719 85.1835C88.8072 85.7063 89.5332 86 90.2903 86H107.146C107.903 86 108.629 85.7063 109.164 85.1835C109.699 84.6607 110 83.9516 110 83.2123V11.6234C110 10.8928 109.703 10.1921 109.174 9.67554C108.645 9.15893 107.928 8.86871 107.179 8.86871ZM76.1538 52.9437H64.8718V41.925H76.1538V52.9437ZM98.7179 52.9437H87.4359V41.925H98.7179V52.9437Z" fill="white"/>
</svg>
